<?xml version="1.0" ?>
<svg xmlns="http://www.w3.org/2000/svg" width="20" height="16" viewBox="0 0 20 16">
  <path d="M18,8C18.0016,7.47 18.2128,6.9623 18.5875,6.5875C18.9623,6.2128 19.4701,6.0016 20,6V2C19.9984,1.47 19.7872,0.9623 19.4125,0.5875C19.0377,0.2128 18.5299,0.0016 18,0H2C1.4713,0.0026 0.9652,0.2145 0.5922,0.5893C0.2193,0.9641 0.01,1.4713 0.01,2V6C0.5404,6.0013 1.0486,6.2133 1.4227,6.5893C1.7969,6.9653 2.0063,7.4746 2.005,8.005C2.0037,8.5354 1.7917,9.0436 1.4157,9.4178C1.0397,9.7919 0.5304,10.0013 0,10V14C0.0016,14.5299 0.2128,15.0377 0.5875,15.4125C0.9623,15.7872 1.47,15.9984 2,16H18C18.5299,15.9984 19.0377,15.7872 19.4125,15.4125C19.7872,15.0377 19.9984,14.5299 20,14V10C19.4701,9.9984 18.9623,9.7872 18.5875,9.4125C18.2128,9.0377 18.0016,8.53 18,8ZM13.58,12.8L10,10.5L6.42,12.8L7.5,8.68L4.21,5.99L8.45,5.74L10,1.8L11.54,5.75L15.78,6L12.49,8.69L13.58,12.8Z" fill="#ffffff"/>
</svg>
