<?xml version="1.0" encoding="UTF-8" standalone="no"?>
<svg
   width="170.84399"
   height="95.1119"
   viewBox="0 0 170.84399 95.1119"
   fill="none"
   version="1.1"
   id="svg731"
   sodipodi:docname="logo.svg"
   inkscape:export-filename="../Документы/citysight_editor/assets/images/logo.svg"
   inkscape:export-xdpi="96"
   inkscape:export-ydpi="96"
   xmlns:inkscape="http://www.inkscape.org/namespaces/inkscape"
   xmlns:sodipodi="http://sodipodi.sourceforge.net/DTD/sodipodi-0.dtd"
   xmlns="http://www.w3.org/2000/svg"
   xmlns:svg="http://www.w3.org/2000/svg">
  <defs
     id="defs729">
    <filter
       id="filter1_di_5975_14322"
       x="84.867798"
       y="24"
       width="95.1119"
       height="95.1119"
       filterUnits="userSpaceOnUse"
       color-interpolation-filters="sRGB">
      <feFlood
         flood-opacity="0"
         result="BackgroundImageFix"
         id="feFlood667" />
      <feColorMatrix
         in="SourceAlpha"
         type="matrix"
         values="0 0 0 0 0 0 0 0 0 0 0 0 0 0 0 0 0 0 127 0"
         result="hardAlpha"
         id="feColorMatrix669" />
      <feOffset
         dx="2"
         dy="3"
         id="feOffset671" />
      <feGaussianBlur
         stdDeviation="2"
         id="feGaussianBlur673" />
      <feColorMatrix
         type="matrix"
         values="0 0 0 0 0.74902 0 0 0 0 0.262745 0 0 0 0 0.25098 0 0 0 0.75 0"
         id="feColorMatrix675" />
      <feBlend
         mode="multiply"
         in2="BackgroundImageFix"
         result="effect1_dropShadow_5975_14322"
         id="feBlend677" />
      <feBlend
         mode="normal"
         in="SourceGraphic"
         in2="effect1_dropShadow_5975_14322"
         result="shape"
         id="feBlend679" />
      <feColorMatrix
         in="SourceAlpha"
         type="matrix"
         values="0 0 0 0 0 0 0 0 0 0 0 0 0 0 0 0 0 0 127 0"
         result="hardAlpha"
         id="feColorMatrix681" />
      <feOffset
         dy="2"
         id="feOffset683" />
      <feGaussianBlur
         stdDeviation="1"
         id="feGaussianBlur685" />
      <feComposite
         in2="hardAlpha"
         operator="arithmetic"
         k2="-1"
         k3="1"
         id="feComposite687"
         k1="0"
         k4="0" />
      <feColorMatrix
         type="matrix"
         values="0 0 0 0 0.309804 0 0 0 0 0.215686 0 0 0 0 0.509804 0 0 0 0.35 0"
         id="feColorMatrix689" />
      <feBlend
         mode="overlay"
         in2="shape"
         result="effect2_innerShadow_5975_14322"
         id="feBlend691" />
    </filter>
    <filter
       id="filter2_d_5975_14322"
       x="108.753"
       y="46.939301"
       width="47.336201"
       height="47.336201"
       filterUnits="userSpaceOnUse"
       color-interpolation-filters="sRGB">
      <feFlood
         flood-opacity="0"
         result="BackgroundImageFix"
         id="feFlood694" />
      <feColorMatrix
         in="SourceAlpha"
         type="matrix"
         values="0 0 0 0 0 0 0 0 0 0 0 0 0 0 0 0 0 0 127 0"
         result="hardAlpha"
         id="feColorMatrix696" />
      <feOffset
         dx="2"
         dy="2"
         id="feOffset698" />
      <feGaussianBlur
         stdDeviation="2"
         id="feGaussianBlur700" />
      <feColorMatrix
         type="matrix"
         values="0 0 0 0 0.309804 0 0 0 0 0.215686 0 0 0 0 0.509804 0 0 0 0.75 0"
         id="feColorMatrix702" />
      <feBlend
         mode="multiply"
         in2="BackgroundImageFix"
         result="effect1_dropShadow_5975_14322"
         id="feBlend704" />
      <feBlend
         mode="normal"
         in="SourceGraphic"
         in2="effect1_dropShadow_5975_14322"
         result="shape"
         id="feBlend706" />
    </filter>
    <linearGradient
       id="paint0_linear_5975_14322"
       x1="173.23599"
       y1="68.5784"
       x2="45.174599"
       y2="68.5784"
       gradientUnits="userSpaceOnUse"
       gradientTransform="translate(-45,-24)">
      <stop
         id="stop709" />
      <stop
         offset="1"
         stop-color="white"
         id="stop711" />
    </linearGradient>
    <linearGradient
       id="paint1_linear_5975_14322"
       x1="86.860298"
       y1="68.578499"
       x2="215.673"
       y2="68.578499"
       gradientUnits="userSpaceOnUse"
       gradientTransform="translate(-45,-24)">
      <stop
         stop-color="white"
         id="stop714" />
      <stop
         offset="1"
         id="stop716" />
    </linearGradient>
    <linearGradient
       id="paint2_linear_5975_14322"
       x1="86.860298"
       y1="68.578499"
       x2="173.987"
       y2="68.578499"
       gradientUnits="userSpaceOnUse">
      <stop
         stop-color="white"
         id="stop719" />
      <stop
         offset="1"
         id="stop721" />
    </linearGradient>
    <linearGradient
       id="paint3_linear_5975_14322"
       x1="110.52"
       y1="68.578499"
       x2="150.14"
       y2="68.578499"
       gradientUnits="userSpaceOnUse">
      <stop
         stop-color="white"
         id="stop724" />
      <stop
         offset="1"
         id="stop726" />
    </linearGradient>
  </defs>
  <path
     d="m 128.09,44.601 c 0,24.0538 -19.255,43.455 -43.564,43.515 C 63.079,88.164 16.7662,57.7151 1.6805,47.7293 1.1638,47.3868 0.7399,46.9217 0.4467,46.3755 0.1535,45.8293 0,45.219 0,44.5991 0,43.9792 0.1535,43.3689 0.4467,42.8227 0.7399,42.2765 1.1638,41.8114 1.6805,41.4689 16.785,31.4831 61.096,1.015 84.534,1.045 c 11.551,0.002 22.628,4.5916 30.796,12.7595 8.168,8.1679 12.758,19.2453 12.76,30.7965 z"
     fill="#304ffe"
     id="path640" />
  <path
     d="m 128.09,44.601 c 0,24.0538 -19.255,43.455 -43.564,43.515 C 63.079,88.164 16.7662,57.7151 1.6805,47.7293 1.1638,47.3868 0.7399,46.9217 0.4467,46.3755 0.1535,45.8293 0,45.219 0,44.5991 0,43.9792 0.1535,43.3689 0.4467,42.8227 0.7399,42.2765 1.1638,41.8114 1.6805,41.4689 16.785,31.4831 61.096,1.015 84.534,1.045 c 11.551,0.002 22.628,4.5916 30.796,12.7595 8.168,8.1679 12.758,19.2453 12.76,30.7965 z"
     fill="url(#paint0_linear_5975_14322)"
     fill-opacity="0.2"
     id="path642"
     style="fill:url(#paint0_linear_5975_14322)" />
  <path
     d="m 42.2358,44.601 c 0,-24.0575 18.2292,-42.8124 43.4962,-43.5635 21.935,-0.6572 68.237,30.4194 83.431,40.4239 0.517,0.3425 0.941,0.8076 1.234,1.3538 0.293,0.5462 0.447,1.1565 0.447,1.7764 0,0.6199 -0.154,1.2302 -0.447,1.7764 -0.293,0.5462 -0.717,1.0113 -1.234,1.3538 C 153.976,57.7226 107.326,89.141 85.705,88.029 60.033,86.707 42.2358,68.6548 42.2358,44.601 Z"
     fill="#f44336"
     id="path644" />
  <path
     d="m 42.2358,44.601 c 0,-24.0575 18.2292,-42.8124 43.4962,-43.5635 21.935,-0.6572 68.237,30.4194 83.431,40.4239 0.517,0.3425 0.941,0.8076 1.234,1.3538 0.293,0.5462 0.447,1.1565 0.447,1.7764 0,0.6199 -0.154,1.2302 -0.447,1.7764 -0.293,0.5462 -0.717,1.0113 -1.234,1.3538 C 153.976,57.7226 107.326,89.141 85.705,88.029 60.033,86.707 42.2358,68.6548 42.2358,44.601 Z"
     fill="url(#paint1_linear_5975_14322)"
     fill-opacity="0.2"
     id="path646"
     style="fill:url(#paint1_linear_5975_14322)" />
  <g
     filter="url(#filter1_di_5975_14322)"
     id="g652"
     transform="translate(-45,-24)">
    <path
       d="m 130.424,112.112 c 24.055,0 43.556,-19.5008 43.556,-43.5561 C 173.98,44.5007 154.479,25 130.424,25 106.368,25 86.8678,44.5007 86.8678,68.5559 c 0,24.0553 19.5002,43.5561 43.5562,43.5561 z"
       fill="#673ab7"
       id="path648" />
    <path
       d="m 130.424,112.112 c 24.055,0 43.556,-19.5008 43.556,-43.5561 C 173.98,44.5007 154.479,25 130.424,25 106.368,25 86.8678,44.5007 86.8678,68.5559 c 0,24.0553 19.5002,43.5561 43.5562,43.5561 z"
       fill="url(#paint2_linear_5975_14322)"
       fill-opacity="0.3"
       id="path650"
       style="fill:url(#paint2_linear_5975_14322)" />
  </g>
  <g
     filter="url(#filter2_d_5975_14322)"
     id="g658"
     transform="translate(-45,-24)">
    <path
       d="m 134.938,87.7452 c 10.57,-2.4947 17.116,-13.0852 14.621,-23.6548 -2.494,-10.5695 -13.085,-17.1155 -23.655,-14.6209 -10.569,2.4947 -17.115,13.0853 -14.62,23.6548 2.494,10.5695 13.085,17.1155 23.654,14.6209 z"
       fill="#ffffff"
       id="path654" />
    <path
       d="m 134.938,87.7452 c 10.57,-2.4947 17.116,-13.0852 14.621,-23.6548 -2.494,-10.5695 -13.085,-17.1155 -23.655,-14.6209 -10.569,2.4947 -17.115,13.0853 -14.62,23.6548 2.494,10.5695 13.085,17.1155 23.654,14.6209 z"
       fill="url(#paint3_linear_5975_14322)"
       fill-opacity="0.2"
       id="path656"
       style="fill:url(#paint3_linear_5975_14322)" />
  </g>
</svg>
