<?xml version="1.0" ?>
<svg xmlns="http://www.w3.org/2000/svg" width="20" height="19" viewBox="0 0 20 19">
  <path d="M6.1001,10.34L8.9301,7.51L1.9101,0.5C1.1609,1.2513 0.7402,2.269 0.7402,3.33C0.7402,4.391 1.1609,5.4087 1.9101,6.16L6.1001,10.34ZM12.8801,8.53C14.4101,9.24 16.5601,8.74 18.1501,7.15C20.0601,5.24 20.4301,2.5 18.9601,1.03C17.5001,-0.43 14.7601,-0.07 12.8401,1.84C11.2501,3.43 10.7501,5.58 11.4601,7.11L1.7001,16.87L3.1101,18.28L10.0001,11.41L16.8801,18.29L18.2901,16.88L11.4101,10L12.8801,8.53Z" fill="#ffffff"/>
</svg>
