<?xml version="1.0" ?>
<svg xmlns="http://www.w3.org/2000/svg" width="20" height="20" viewBox="0 0 20 20">
  <path d="M14,7V5H10V10.5C9.58,10.19 9.07,10 8.5,10C7.837,10 7.2011,10.2634 6.7322,10.7322C6.2634,11.2011 6,11.837 6,12.5C6,13.163 6.2634,13.7989 6.7322,14.2678C7.2011,14.7366 7.837,15 8.5,15C9.163,15 9.7989,14.7366 10.2678,14.2678C10.7366,13.7989 11,13.163 11,12.5V7H14ZM10,0C11.3132,0 12.6136,0.2587 13.8268,0.7612C15.0401,1.2637 16.1425,2.0003 17.0711,2.9289C17.9997,3.8575 18.7362,4.9599 19.2388,6.1732C19.7413,7.3864 20,8.6868 20,10C20,12.6522 18.9464,15.1957 17.0711,17.0711C15.1957,18.9464 12.6522,20 10,20C8.6868,20 7.3864,19.7413 6.1732,19.2388C4.9599,18.7362 3.8575,17.9997 2.9289,17.0711C1.0536,15.1957 0,12.6522 0,10C0,7.3478 1.0536,4.8043 2.9289,2.9289C4.8043,1.0536 7.3478,0 10,0Z" fill="#ffffff"/>
</svg>
