<?xml version="1.0" ?>
<svg xmlns="http://www.w3.org/2000/svg" width="18" height="18" viewBox="0 0 18 18">
  <path d="M10.1272,11.56L11.5572,10.13L17.9972,16.573L16.5702,18L10.1272,11.56ZM14.4202,5.83L17.2802,2.97C13.3302,-0.98 6.9302,-0.99 2.9802,2.95C6.9102,1.65 11.2902,2.7 14.4202,5.83ZM2.9502,2.98C-0.9898,6.93 -0.9798,13.33 2.9702,17.28L5.8302,14.42C2.7002,11.29 1.6502,6.91 2.9502,2.98ZM2.9702,2.96L2.9602,2.97C2.5802,5.98 4.1302,9.85 7.2602,12.99L12.9902,7.26C9.8602,4.13 5.9802,2.58 2.9702,2.96Z" fill="#ffffff"/>
</svg>
