<?xml version="1.0" ?>
<svg xmlns="http://www.w3.org/2000/svg" width="4" height="4" viewBox="0 0 4 4">
  <path d="M2.34301,0.87897C2.24767,1.04364 2.30487,1.25686 2.46955,1.3522 2.63422,1.44754 2.84744,1.39033 2.94278,1.22566 3.03812,1.06098 2.98091,0.84776 2.81624,0.75243 2.65156,0.65709 2.43835,0.71429 2.34301,0.87897ZM2.12071,0.51705C2.24552,0.58812 2.40327,0.54652 2.47607,0.42171 2.54715,0.2969 2.50554,0.13916 2.38073,0.06636 2.32104,0.03309 2.25065,0.02465 2.18479,0.04285 2.11892,0.06105 2.06286,0.10443 2.02871,0.16362c-0.03415,0.05919 -0.04364,0.12944 -0.02643,0.19557 0.01722,0.06613 0.05976,0.12284 0.11843,0.15786zM2.65635,1.66286 L2.20565,1.40284C1.79309,1.16363 1.65095,0.63319 1.89017,0.22063L1.59028,0.04729C1.31466,0.52225 1.40133,1.10816 1.75842,1.48778L0.8657,3.03402 1.16559,3.20736 1.4256,2.75666 1.72549,2.93001 1.20545,3.8314 1.50534,4.00475 2.59568,2.11702c0.09986,0.13552 0.15812,0.29716 0.16766,0.46524 0.00955,0.16806 -0.03004,0.33527 -0.11392,0.48122L2.94931,3.23683C3.22666,2.76013 3.17119,2.09622 2.65635,1.66286Z" fill="#ffffff" stroke-width="0.1733446"/>
</svg>
