<?xml version="1.0" ?>
<svg xmlns="http://www.w3.org/2000/svg" width="7" height="8" viewBox="0 0 7 8">
  <path d="M5.02894,3.21088C5.25818,3.21088 5.47959,3.23508 5.68017,3.2808L5.68017,2.87205C5.47438,2.83171 5.25297,2.80751 5.02894,2.80751 4.58611,2.80751 4.18495,2.88549 3.85673,3.03071L3.85673,3.47711C4.15108,3.305 4.56006,3.21088 5.02894,3.21088ZM3.85673,3.74602L3.85673,4.19242C4.15108,4.02032 4.56006,3.9262 5.02894,3.9262 5.25818,3.9262 5.47959,3.9504 5.68017,3.99611L5.68017,3.58736C5.47438,3.54703 5.25297,3.52282 5.02894,3.52282 4.58611,3.52282 4.18495,3.6035 3.85673,3.74602ZM5.02894,4.24083C4.58611,4.24083 4.18495,4.31881 3.85673,4.46403L3.85673,4.91043C4.15108,4.73832 4.56006,4.6442 5.02894,4.6442 5.25818,4.6442 5.47959,4.6684 5.68017,4.71412L5.68017,4.30537C5.47438,4.26234 5.25297,4.24083 5.02894,4.24083ZM5.97915,1.69377C5.67693,1.59847 5.34475,1.55763 5.02619,1.55763c-0.53093,0 -1.10271,0.10891 -1.49751,0.40841 -0.3948,-0.2995 -0.96657,-0.40841 -1.49751,-0.40841 -0.53093,0 -1.10271,0.10891 -1.49751,0.40841L0.53367,5.95486c0,0.06807 0.06807,0.13614 0.13614,0.13614 0.02723,0 0.04084,-0.01362 0.06807,-0.01362 0.36757,-0.17698 0.89851,-0.2995 1.2933,-0.2995 0.53094,0 1.10271,0.10891 1.49751,0.40841 0.36757,-0.23143 1.03464,-0.40841 1.49751,-0.40841 0.44925,0 0.91212,0.08168 1.2933,0.28589 0.02723,0.01362 0.04084,0.01362 0.06807,0.01362 0.06807,0 0.13614,-0.06807 0.13614,-0.13614L6.5237,1.96604C6.36034,1.84352 6.18336,1.76183 5.97915,1.69377ZM5.97915,5.36947C5.67965,5.27417 5.35292,5.23333 5.02619,5.23333c-0.46287,0 -1.12994,0.17698 -1.49751,0.40841L3.52868,2.51059c0.36757,-0.23143 1.03464,-0.40841 1.49751,-0.40841 0.32673,0 0.65346,0.04084 0.95296,0.13614z" fill="#ffffff"/>
</svg>
