<?xml version="1.0" encoding="UTF-8" standalone="no"?>
<svg
   width="170.84399"
   height="87.700003"
   viewBox="0 0 170.84399 87.300004"
   fill="none"
   version="1.1"
   id="svg731"
   sodipodi:docname="splash.svg"
   inkscape:export-filename="../Документы/citysight_editor/assets/images/logo.svg"
   inkscape:export-xdpi="96"
   inkscape:export-ydpi="96"
   inkscape:version="1.2 (dc2aedaf03, 2022-05-15)"
   xmlns:inkscape="http://www.inkscape.org/namespaces/inkscape"
   xmlns:sodipodi="http://sodipodi.sourceforge.net/DTD/sodipodi-0.dtd"
   xmlns="http://www.w3.org/2000/svg"
   xmlns:svg="http://www.w3.org/2000/svg">
  <sodipodi:namedview
     id="namedview48"
     pagecolor="#ffffff"
     bordercolor="#000000"
     borderopacity="0.25"
     inkscape:showpageshadow="2"
     inkscape:pageopacity="0.0"
     inkscape:pagecheckerboard="0"
     inkscape:deskcolor="#d1d1d1"
     showgrid="false"
     inkscape:zoom="4.4105942"
     inkscape:cx="108.82887"
     inkscape:cy="41.264281"
     inkscape:window-width="1920"
     inkscape:window-height="1011"
     inkscape:window-x="0"
     inkscape:window-y="32"
     inkscape:window-maximized="1"
     inkscape:current-layer="svg731" />
  <defs
     id="defs729">
    <filter
       id="filter1_di_5975_14322"
       x="84.867798"
       y="24"
       width="95.1119"
       height="95.1119"
       filterUnits="userSpaceOnUse"
       color-interpolation-filters="sRGB">
      <feFlood
         flood-opacity="0"
         result="BackgroundImageFix"
         id="feFlood667" />
      <feColorMatrix
         in="SourceAlpha"
         type="matrix"
         values="0 0 0 0 0 0 0 0 0 0 0 0 0 0 0 0 0 0 127 0"
         result="hardAlpha"
         id="feColorMatrix669" />
      <feOffset
         dx="2"
         dy="3"
         id="feOffset671" />
      <feGaussianBlur
         stdDeviation="2"
         id="feGaussianBlur673" />
      <feColorMatrix
         type="matrix"
         values="0 0 0 0 0.74902 0 0 0 0 0.262745 0 0 0 0 0.25098 0 0 0 0.75 0"
         id="feColorMatrix675" />
      <feBlend
         mode="multiply"
         in2="BackgroundImageFix"
         result="effect1_dropShadow_5975_14322"
         id="feBlend677" />
      <feBlend
         mode="normal"
         in="SourceGraphic"
         in2="effect1_dropShadow_5975_14322"
         result="shape"
         id="feBlend679" />
      <feColorMatrix
         in="SourceAlpha"
         type="matrix"
         values="0 0 0 0 0 0 0 0 0 0 0 0 0 0 0 0 0 0 127 0"
         result="hardAlpha"
         id="feColorMatrix681" />
      <feOffset
         dy="2"
         id="feOffset683" />
      <feGaussianBlur
         stdDeviation="1"
         id="feGaussianBlur685" />
      <feComposite
         in2="hardAlpha"
         operator="arithmetic"
         k2="-1"
         k3="1"
         id="feComposite687"
         k1="0"
         k4="0" />
      <feColorMatrix
         type="matrix"
         values="0 0 0 0 0.309804 0 0 0 0 0.215686 0 0 0 0 0.509804 0 0 0 0.35 0"
         id="feColorMatrix689" />
      <feBlend
         mode="overlay"
         in2="shape"
         result="effect2_innerShadow_5975_14322"
         id="feBlend691" />
    </filter>
    <filter
       id="filter2_d_5975_14322"
       x="108.753"
       y="46.939301"
       width="47.336201"
       height="47.336201"
       filterUnits="userSpaceOnUse"
       color-interpolation-filters="sRGB">
      <feFlood
         flood-opacity="0"
         result="BackgroundImageFix"
         id="feFlood694" />
      <feColorMatrix
         in="SourceAlpha"
         type="matrix"
         values="0 0 0 0 0 0 0 0 0 0 0 0 0 0 0 0 0 0 127 0"
         result="hardAlpha"
         id="feColorMatrix696" />
      <feOffset
         dx="2"
         dy="2"
         id="feOffset698" />
      <feGaussianBlur
         stdDeviation="2"
         id="feGaussianBlur700" />
      <feColorMatrix
         type="matrix"
         values="0 0 0 0 0.309804 0 0 0 0 0.215686 0 0 0 0 0.509804 0 0 0 0.75 0"
         id="feColorMatrix702" />
      <feBlend
         mode="multiply"
         in2="BackgroundImageFix"
         result="effect1_dropShadow_5975_14322"
         id="feBlend704" />
      <feBlend
         mode="normal"
         in="SourceGraphic"
         in2="effect1_dropShadow_5975_14322"
         result="shape"
         id="feBlend706" />
    </filter>
    <linearGradient
       id="paint0_linear_5975_14322"
       x1="173.23599"
       y1="68.5784"
       x2="45.174599"
       y2="68.5784"
       gradientUnits="userSpaceOnUse"
       gradientTransform="matrix(0.99819954,0,0,1.0028601,-44.722566,-24.794816)">
      <stop
         id="stop709" />
      <stop
         offset="1"
         stop-color="white"
         id="stop711" />
    </linearGradient>
    <linearGradient
       id="paint1_linear_5975_14322"
       x1="86.860298"
       y1="68.578499"
       x2="215.673"
       y2="68.578499"
       gradientUnits="userSpaceOnUse"
       gradientTransform="matrix(0.99819954,0,0,1.0028601,-44.722566,-24.794816)">
      <stop
         stop-color="white"
         id="stop714" />
      <stop
         offset="1"
         id="stop716" />
    </linearGradient>
    <linearGradient
       id="paint2_linear_5975_14322"
       x1="86.860298"
       y1="68.578499"
       x2="173.987"
       y2="68.578499"
       gradientUnits="userSpaceOnUse">
      <stop
         stop-color="white"
         id="stop719" />
      <stop
         offset="1"
         id="stop721" />
    </linearGradient>
    <linearGradient
       id="paint3_linear_5975_14322"
       x1="110.52"
       y1="68.578499"
       x2="150.14"
       y2="68.578499"
       gradientUnits="userSpaceOnUse">
      <stop
         stop-color="white"
         id="stop724" />
      <stop
         offset="1"
         id="stop726" />
    </linearGradient>
  </defs>
  <g
     id="g1253"
     inkscape:export-filename="../../g1253.svg"
     inkscape:export-xdpi="96"
     inkscape:export-ydpi="96">
    <path
       d="m 128.05579,44.00239 c 0,24.122596 -19.22033,43.579285 -43.485562,43.639457 C 63.161842,87.689984 16.932426,57.153997 1.8738876,47.139637 1.3581179,46.796157 0.93498113,46.329727 0.64230902,45.781965 0.34963692,45.234203 0.19641329,44.622157 0.19641329,44.000484 c 0,-0.621673 0.15322363,-1.233718 0.44589573,-1.781481 C 0.93498113,41.671241 1.3581179,41.204811 1.8738876,40.861331 16.951193,30.846971 61.182412,0.29172926 84.578213,0.32181506 96.108416,0.32382078 107.16547,4.9265475 115.31877,13.117809 c 8.15329,8.191261 12.73503,19.300343 12.73702,30.884581 z"
       fill="#304ffe"
       id="path640"
       style="stroke-width:1.00053" />
    <path
       d="m 128.05579,44.00239 c 0,24.122596 -19.22033,43.579285 -43.485562,43.639457 C 63.161842,87.689984 16.932426,57.153997 1.8738876,47.139637 1.3581179,46.796157 0.93498113,46.329727 0.64230902,45.781965 0.34963692,45.234203 0.19641329,44.622157 0.19641329,44.000484 c 0,-0.621673 0.15322363,-1.233718 0.44589573,-1.781481 C 0.93498113,41.671241 1.3581179,41.204811 1.8738876,40.861331 16.951193,30.846971 61.182412,0.29172926 84.578213,0.32181506 96.108416,0.32382078 107.16547,4.9265475 115.31877,13.117809 c 8.15329,8.191261 12.73503,19.300343 12.73702,30.884581 z"
       fill="url(#paint0_linear_5975_14322)"
       fill-opacity="0.2"
       id="path642"
       style="fill:url(#paint0_linear_5975_14322);stroke-width:1.00053"
       sodipodi:nodetypes="cccsssccsc" />
    <path
       d="m 42.356169,44.00239 c 0,-24.126307 18.196379,-42.9348482 43.417887,-43.68809639 C 107.66956,-0.34478604 153.8882,30.820696 169.05484,40.85381 c 0.51607,0.34348 0.93931,0.80991 1.23178,1.357672 0.29247,0.547762 0.4462,1.159808 0.4462,1.781481 0,0.621673 -0.15373,1.233718 -0.4462,1.78148 -0.29247,0.547763 -0.71571,1.014193 -1.23178,1.357672 C 153.89519,57.161519 107.32918,88.669778 85.747105,87.554598 60.121326,86.228817 42.356169,68.124986 42.356169,44.00239 Z"
       fill="#f44336"
       id="path644"
       style="stroke-width:1.00053" />
    <path
       d="m 42.356169,44.00239 c 0,-24.126307 18.196379,-42.9348482 43.417887,-43.68809639 C 107.66956,-0.34478604 153.8882,30.820696 169.05484,40.85381 c 0.51607,0.34348 0.93931,0.80991 1.23178,1.357672 0.29247,0.547762 0.4462,1.159808 0.4462,1.781481 0,0.621673 -0.15373,1.233718 -0.4462,1.78148 -0.29247,0.547763 -0.71571,1.014193 -1.23178,1.357672 C 153.89519,57.161519 107.32918,88.669778 85.747105,87.554598 60.121326,86.228817 42.356169,68.124986 42.356169,44.00239 Z"
       fill="url(#paint1_linear_5975_14322)"
       fill-opacity="0.2"
       id="path646"
       style="fill:url(#paint1_linear_5975_14322);stroke-width:1.00053"
       sodipodi:nodetypes="sccsssccs" />
    <path
       d="m 130.424,112.112 c 24.055,0 43.556,-19.5008 43.556,-43.5561 C 173.98,44.5007 154.479,25 130.424,25 106.368,25 86.8678,44.5007 86.8678,68.5559 c 0,24.0553 19.5002,43.5561 43.5562,43.5561 z"
       fill="#673ab7"
       id="path648"
       transform="matrix(0.99819954,0,0,1.0028601,-44.722566,-24.794816)" />
    <path
       d="m 130.424,112.112 c 24.055,0 43.556,-19.5008 43.556,-43.5561 C 173.98,44.5007 154.479,25 130.424,25 106.368,25 86.8678,44.5007 86.8678,68.5559 c 0,24.0553 19.5002,43.5561 43.5562,43.5561 z"
       fill="url(#paint2_linear_5975_14322)"
       fill-opacity="0.3"
       id="path650"
       style="fill:url(#paint2_linear_5975_14322)"
       sodipodi:nodetypes="sssss"
       transform="matrix(0.99819954,0,0,1.0028601,-44.722566,-24.794816)" />
    <path
       d="m 134.938,87.7452 c 10.57,-2.4947 17.116,-13.0852 14.621,-23.6548 -2.494,-10.5695 -13.085,-17.1155 -23.655,-14.6209 -10.569,2.4947 -17.115,13.0853 -14.62,23.6548 2.494,10.5695 13.085,17.1155 23.654,14.6209 z"
       fill="#ffffff"
       id="path654"
       style="image-rendering:optimizeQuality"
       transform="matrix(0.99819954,0,0,1.0028601,-44.722566,-24.794816)" />
    <path
       d="m 134.938,87.7452 c 10.57,-2.4947 17.116,-13.0852 14.621,-23.6548 -2.494,-10.5695 -13.085,-17.1155 -23.655,-14.6209 -10.569,2.4947 -17.115,13.0853 -14.62,23.6548 2.494,10.5695 13.085,17.1155 23.654,14.6209 z"
       fill="url(#paint3_linear_5975_14322)"
       fill-opacity="0.2"
       id="path656"
       style="image-rendering:optimizeQuality;fill:url(#paint3_linear_5975_14322)"
       sodipodi:nodetypes="ccccc"
       transform="matrix(0.99819954,0,0,1.0028601,-44.722566,-24.794816)" />
  </g>
</svg>
